<mxfile host="app.diagrams.net" modified="2023-07-11T06:04:30.182Z" agent="Mozilla/5.0 (Windows NT 10.0; Win64; x64) AppleWebKit/537.36 (KHTML, like Gecko) Chrome/114.0.0.0 Safari/537.36" etag="fS7t9wmhHeNQnSz7vu4C" version="21.5.0" type="github">
  <diagram name="第 1 页" id="5Ny1kzSePx0lt5mofnTc">
    <mxGraphModel dx="1834" dy="414" grid="0" gridSize="10" guides="1" tooltips="1" connect="1" arrows="1" fold="1" page="0" pageScale="1" pageWidth="827" pageHeight="1169" math="0" shadow="0">
      <root>
        <mxCell id="0" />
        <mxCell id="1" parent="0" />
        <mxCell id="tmvlulsvm-YrZkXYPVVm-1" value="" style="rounded=0;whiteSpace=wrap;html=1;fontSize=16;" vertex="1" parent="1">
          <mxGeometry x="-389" y="429" width="120" height="60" as="geometry" />
        </mxCell>
      </root>
    </mxGraphModel>
  </diagram>
</mxfile>
